# xmcd
#
# Track frame offsets: 
#        182
#        18620
#        37892
#        54610
#        73285
#        102535
#        128187
#
# Disc length: 2034 seconds
#
# Revision: 1
# Processed by: cddbd v1.5.2PL0 Copyright (c) Steve Scherf et al.
# Submitted via: ExactAudioCopy v0.99pb5
#
DISCID=6407f007
DTITLE=Soultans - I Know
DYEAR=1997
DGENRE=Rhythmic Soul
TTITLE0=I Know (Radio Mix)
TTITLE1=I Know (130 BPM) (Paradise Dance Floor Mix)
TTITLE2=I Know (Dramatic Radio Mix)
TTITLE3=I Know (Ma-Trix Radio Edit)
TTITLE4=I Know (Paradise Dance Floor Extended)
TTITLE5=I Know (Sash! Remix)
TTITLE6=I Know (Extended Version)
EXTD=
EXTT0=
EXTT1=
EXTT2=
EXTT3=
EXTT4=
EXTT5=
EXTT6=
PLAYORDER=
